Coordinates
version=1
nRows=16
nColumns=40
inDegrees=yes

Units are S.I. units (second, meters, Newtons, ...)
Angles are in degrees.

endheader
time	pelvis_tilt	pelvis_list	pelvis_rotation	pelvis_tx	pelvis_ty	pelvis_tz	hip_flexion_r	hip_adduction_r	hip_rotation_r	knee_angle_r	knee_angle_r_beta	ankle_angle_r	subtalar_angle_r	mtp_angle_r	hip_flexion_l	hip_adduction_l	hip_rotation_l	knee_angle_l	knee_angle_l_beta	ankle_angle_l	subtalar_angle_l	mtp_angle_l	lumbar_extension	lumbar_bending	lumbar_rotation	arm_flex_r	arm_add_r	arm_rot_r	elbow_flex_r	pro_sup_r	wrist_flex_r	wrist_dev_r	arm_flex_l	arm_add_l	arm_rot_l	elbow_flex_l	pro_sup_l	wrist_flex_l	wrist_dev_l
      4.08764286	     -7.34698838	     -3.55945693	     -4.47676890	      0.76773355	      0.92051372	      0.45992427	     27.61760929	     -0.84319786	    -13.21945136	     13.39312844	     13.39312844	      2.88318375	      4.94129661	      3.90180370	      6.47672031	     -3.95181579	     -8.02959978	     17.11357776	     17.11357776	     18.95101248	     -9.14999781	     -0.79888836	     -9.91123791	      6.32051508	      1.85454942	    -12.02609585	    -12.88808250	    -10.26701887	     24.65870224	     47.16187251	      0.00000000	      0.00000000	     17.31587747	    -16.11113305	     -9.73924396	     80.00322556	     47.16769284	      0.00000000	      0.00000000
      4.10028571	     -7.44113420	     -3.46521318	     -4.47968369	      0.76945207	      0.91929133	      0.46216621	     27.53177025	     -0.69813948	    -13.36106349	     13.21244658	     13.21244658	      2.67882422	      5.16957265	      3.86761331	      5.91856887	     -3.96091625	     -8.04091580	     16.97214764	     16.97214764	     19.27724786	     -9.04759858	     -0.87696676	     -9.57891844	      6.27867430	      1.74066663	    -12.78728112	    -12.82374091	    -10.34632308	     24.55402556	     47.16230732	      0.00000000	      0.00000000	     17.50880447	    -16.23622720	     -9.87348351	     80.46557388	     47.19073455	      0.00000000	      0.00000000
      4.11292857	     -7.37132659	     -3.41288311	     -4.52909802	      0.77144328	      0.91843101	      0.46455865	     27.13935043	     -0.55370565	    -13.64902149	     13.09508712	     13.09508712	      1.70120837	      5.62106170	      1.44315755	      5.14355958	     -4.05684712	     -8.33457948	     16.83470328	     16.83470328	     19.80744722	     -8.46536523	     -0.59097511	     -9.55773748	      6.25514754	      1.73750605	    -13.76868195	    -12.70713983	    -11.07626760	     25.84929785	     47.11870250	      0.00000000	      0.00000000	     17.13615987	    -16.07344179	    -10.19113159	     82.42809844	     47.29996280	      0.00000000	      0.00000000
      4.12557143	     -7.47879851	     -3.34523131	     -4.54919537	      0.77315863	      0.91767867	      0.46702066	     26.96497187	     -0.42643939	    -13.59985655	     13.27694448	     13.27694448	      1.45611535	      5.64677571	      1.47391913	      4.72304004	     -4.13079346	     -8.30967683	     16.90327000	     16.90327000	     19.93797750	     -8.50463454	     -0.62691542	     -9.21878432	      6.25606886	      1.65019995	    -13.88851580	    -12.66727678	    -11.07864328	     25.80860732	     47.11906797	      0.00000000	      0.00000000	     17.19654835	    -16.05942196	    -10.19421508	     82.47600977	     47.30188327	      0.00000000	      0.00000000
      4.13821429	     -7.36555725	     -3.28657949	     -4.58268765	      0.77506698	      0.91701914	      0.46963853	     27.10854112	     -0.43156546	    -13.26683374	     14.72987373	     14.72987373	      1.40058302	      4.83331342	      0.19197886	      4.01842915	     -4.21027523	     -8.38719829	     16.94113658	     16.94113658	     20.30455864	     -8.41992096	     -0.43626482	     -9.24891147	      6.23340072	      1.95506506	    -14.38082355	    -12.46664396	    -11.09513899	     25.54474747	     47.11816936	      0.00000000	      0.00000000	     17.32288048	    -15.62802562	    -10.30695236	     83.04649356	     47.33339990	      0.00000000	      0.00000000
      4.15085714	     -7.29244232	     -3.41232754	     -4.55024725	      0.77699524	      0.91687787	      0.47238768	     26.79800046	     -0.20257682	    -13.18325812	     15.41203238	     15.41203238	      1.43951608	      4.60557754	     -0.16158489	      3.51372143	     -4.53229362	     -8.34968815	     17.24328910	     17.24328910	     20.37784642	     -8.56595364	     -0.39536410	     -9.17095564	      6.38681132	      1.87822715	    -14.40205266	    -12.31514700	    -11.08777360	     25.52161080	     47.11622789	      0.00000000	      0.00000000	     17.12348840	    -15.40090634	    -10.24396980	     83.05180974	     47.33077562	      0.00000000	      0.00000000
      4.16350000	     -7.10584308	     -3.41810714	     -4.48427921	      0.77866873	      0.91688407	      0.47503131	     26.65183113	     -0.17948530	    -12.93274302	     16.64770050	     16.64770050	      1.69658174	      3.98224242	     -0.83118990	      3.16152686	     -4.74725026	     -8.21455056	     18.00831226	     18.00831226	     20.46926843	     -8.79780081	     -0.39221729	     -9.33444867	      6.47143330	      1.96673058	    -14.15240778	    -12.25668977	    -11.07949941	     25.54990767	     47.11378840	      0.00000000	      0.00000000	     16.95399672	    -15.13457895	    -10.21569400	     83.11044101	     47.33336776	      0.00000000	      0.00000000
      4.17614286	     -7.26382534	     -3.26463048	     -4.37420968	      0.77990011	      0.91640663	      0.47766982	     27.03273546	     -0.27422020	    -12.31145407	     18.07999035	     18.07999035	      1.89961664	      2.64146621	     -1.95259077	      3.56746217	     -4.87828412	     -8.05054202	     19.38252726	     19.38252726	     20.58028536	     -9.19060656	     -0.32700100	     -9.07709783	      6.33798519	      1.92677785	    -13.82004851	    -12.12448794	    -11.06047560	     25.49672001	     47.10887798	      0.00000000	      0.00000000	     16.77180531	    -14.90647092	    -10.29866752	     83.27559991	     47.35449228	      0.00000000	      0.00000000
      4.18878571	     -7.18364928	     -3.28820802	     -4.21868854	      0.78126257	      0.91670727	      0.48034477	     26.81418074	     -0.16688727	    -11.93048582	     18.93691862	     18.93691862	      2.22772706	      1.73564149	     -2.63852192	      3.81533779	     -5.19958864	     -7.81791966	     20.94415626	     20.94415626	     20.49328520	     -9.74491062	     -0.36039663	     -9.12470878	      6.41444234	      1.79157424	    -13.21025671	    -12.02951662	    -11.00930434	     25.51779364	     47.10030155	      0.00000000	      0.00000000	     16.41520020	    -14.62805768	    -10.28806966	     83.16880507	     47.36441639	      0.00000000	      0.00000000
      4.20142857	     -7.10721480	     -3.32327001	     -4.01437466	      0.78244725	      0.91718618	      0.48295737	     26.52960663	     -0.06485926	    -11.66957434	     19.64134815	     19.64134815	      2.69819489	      1.01399569	     -3.01917550	      4.30554217	     -5.55303141	     -7.47162300	     22.87921584	     22.87921584	     20.19126846	    -10.48453007	     -0.60706518	     -9.19982334	      6.49856897	      1.65955807	    -12.47888090	    -11.95146707	    -10.93160381	     25.61719975	     47.08792728	      0.00000000	      0.00000000	     16.04837424	    -14.33014543	    -10.22104196	     82.90778503	     47.36648168	      0.00000000	      0.00000000
      4.21407143	     -6.99334213	     -3.39205323	     -3.75907298	      0.78351055	      0.91786849	      0.48549465	     26.10036095	      0.06431754	    -11.54863536	     20.13529601	     20.13529601	      3.26098486	      0.47910860	     -3.21954059	      4.98914148	     -5.95631542	     -7.02297806	     25.18744065	     25.18744065	     19.68138541	    -11.38609647	     -1.00562774	     -9.34188469	      6.61069433	      1.54296827	    -11.65738038	    -11.89976335	    -10.85402893	     25.83893320	     47.07326932	      0.00000000	      0.00000000	     15.68494342	    -14.00558881	    -10.08162317	     82.52953796	     47.35788412	      0.00000000	      0.00000000
      4.22671429	     -6.78265125	     -3.44602198	     -3.49652831	      0.78448217	      0.91882369	      0.48796462	     25.47235183	      0.18278213	    -11.47830137	     20.42091598	     20.42091598	      3.83524490	      0.14080428	     -3.35600513	      5.74272413	     -6.35082287	     -6.59706808	     27.76831472	     27.76831472	     18.96815129	    -12.35755724	     -1.41055154	     -9.60550446	      6.68427008	      1.47648619	    -10.70742639	    -11.85515706	    -10.78722683	     26.18360484	     47.05758056	      0.00000000	      0.00000000	     15.32621665	    -13.61823287	     -9.87406624	     82.09842541	     47.34007237	      0.00000000	      0.00000000
      4.23935714	     -6.90837025	     -3.60913082	     -3.12648516	      0.78507613	      0.91925815	      0.49035000	     25.13590988	      0.42811852	    -11.55773226	     20.52262476	     20.52262476	      4.34793894	     -0.36093417	     -3.37867685	      7.24310572	     -6.87137886	     -5.84421962	     30.91857157	     30.91857157	     17.88974163	    -13.65838549	     -2.08715932	     -9.46196106	      6.91134246	      1.23685299	     -9.79324483	    -11.88495645	    -10.69066262	     26.63378861	     47.03147047	      0.00000000	      0.00000000	     14.82341105	    -13.27972538	     -9.64370383	     81.33304146	     47.31795572	      0.00000000	      0.00000000
      4.25200000	     -6.87644000	     -3.69910662	     -2.79191915	      0.78569174	      0.91994169	      0.49269864	     24.58241098	      0.62254920	    -11.57828584	     20.51749712	     20.51749712	      4.89478232	     -0.82096230	     -3.35122532	      8.60726355	     -7.27030025	     -5.11861270	     34.06636363	     34.06636363	     16.37956399	    -15.11046833	     -3.12589987	     -9.47152686	      7.00299761	      1.08462551	     -8.80466353	    -11.95381557	    -10.44953961	     27.40659679	     46.97224986	      0.00000000	      0.00000000	     14.44149834	    -12.92031635	     -9.38762206	     80.19067376	     47.29812777	      0.00000000	      0.00000000
      4.26464286	     -6.83492629	     -3.89728831	     -2.44634758	      0.78609401	      0.92062716	      0.49500155	     23.96807417	      0.91004898	    -11.77328414	     20.38096988	     20.38096988	      5.26121709	     -0.99545331	     -3.42500362	     10.12670518	     -7.80384166	     -4.42154692	     37.41912158	     37.41912158	     14.54562069	    -16.42297495	     -4.32653498	     -9.54883143	      7.24394240	      1.14595263	     -8.13072485	    -12.12916286	     -9.90778018	     28.77299296	     46.84526713	      0.00000000	      0.00000000	     14.25870952	    -12.42291431	     -8.95325863	     78.68693571	     47.28035653	      0.00000000	      0.00000000
      4.27728571	     -6.78647119	     -4.12537217	     -2.10724377	      0.78647141	      0.92122739	      0.49732862	     23.27492576	      1.23212529	    -12.09002665	     20.11550138	     20.11550138	      5.65055314	     -0.96005148	     -3.55088719	     11.78337720	     -8.38017645	     -3.73180831	     40.98913719	     40.98913719	     13.11770468	    -17.23956798	     -4.35432689	     -9.61815058	      7.44460173	      1.15693473	     -7.09767309	    -12.27471676	     -9.80174181	     29.49882189	     46.80856777	      0.00000000	      0.00000000	     13.74412186	    -11.97472852	     -8.60767894	     77.96318089	     47.24947116	      0.00000000	      0.00000000
